HIERARCHY
ROOT Hips
{
  OFFSET 5.84602e-005 68.8428 3.50346
  CHANNELS 6 Xposition Yposition Zposition Zrotation Xrotation Yrotation
  JOINT Spine
  {
    OFFSET 0 8.597 -4.6522
    CHANNELS 3 Zrotation Xrotation Yrotation
    JOINT Spine1
    {
      OFFSET 0 7.8454 0.4098
      CHANNELS 3 Zrotation Xrotation Yrotation
      JOINT Spine2
      {
        OFFSET 0 9.7078 -2.1609
        CHANNELS 3 Zrotation Xrotation Yrotation
        JOINT Neck
        {
          OFFSET 0 21.8761 -0.4549
          CHANNELS 3 Zrotation Xrotation Yrotation
          JOINT Head
          {
            OFFSET 0 12.3537 3.3602
            CHANNELS 3 Zrotation Xrotation Yrotation
            End Site
            {
              OFFSET 0.0001 18.9506 0.5657
            }
          }
        }
        JOINT LeftShoulder
        {
          OFFSET 2.2086 21.1115 7.2329
          CHANNELS 3 Zrotation Xrotation Yrotation
          JOINT LeftArm
          {
            OFFSET 13.1193 3.0282 -4.8998
            CHANNELS 3 Zrotation Xrotation Yrotation
            JOINT LeftForeArm
            {
              OFFSET 27.4081 -0.0973053 -0.2375
              CHANNELS 3 Zrotation Xrotation Yrotation
              JOINT LeftHand
              {
                OFFSET 22.8641 0.0662994 -0.1369
                CHANNELS 3 Zrotation Xrotation Yrotation
                JOINT LeftHandIndex1
                {
                  OFFSET 8.8614 0.775009 2.4612
                  CHANNELS 3 Zrotation Xrotation Yrotation
                  JOINT LeftHandIndex2
                  {
                    OFFSET 3.3146 -0.808304 0.5841
                    CHANNELS 3 Zrotation Xrotation Yrotation
                    JOINT LeftHandIndex3
                    {
                      OFFSET 2.2628 -0.552002 0.3989
                      CHANNELS 3 Zrotation Xrotation Yrotation
                      End Site
                      {
                        OFFSET 1.6102 -0.4807 0.2612
                      }
                    }
                  }
                }
                JOINT LeftHandMiddle1
                {
                  OFFSET 8.9937 0.895004 0.2143
                  CHANNELS 3 Zrotation Xrotation Yrotation
                  JOINT LeftHandMiddle2
                  {
                    OFFSET 4.0984 0.0113983 -0.0242
                    CHANNELS 3 Zrotation Xrotation Yrotation
                    JOINT LeftHandMiddle3
                    {
                      OFFSET 2.2716 0.00689697 -0.0138001
                      CHANNELS 3 Zrotation Xrotation Yrotation
                      End Site
                      {
                        OFFSET 2.0404 -0.1441 0.0027
                      }
                    }
                  }
                }
                JOINT LeftHandRing1
                {
                  OFFSET 8.5234 0.597198 -2.0164
                  CHANNELS 3 Zrotation Xrotation Yrotation
                  JOINT LeftHandRing2
                  {
                    OFFSET 3.7188 -0.188293 -0.2328
                    CHANNELS 3 Zrotation Xrotation Yrotation
                    JOINT LeftHandRing3
                    {
                      OFFSET 2.1191 -0.106598 -0.1332
                      CHANNELS 3 Zrotation Xrotation Yrotation
                      End Site
                      {
                        OFFSET 1.8737 -0.2304 -0.0886
                      }
                    }
                  }
                }
                JOINT LeftHandPinky1
                {
                  OFFSET 7.9094 -0.601089 -3.4825
                  CHANNELS 3 Zrotation Xrotation Yrotation
                  JOINT LeftHandPinky2
                  {
                    OFFSET 2.2874 -0.477005 -0.6314
                    CHANNELS 3 Zrotation Xrotation Yrotation
                    JOINT LeftHandPinky3
                    {
                      OFFSET 1.6774 -0.349396 -0.4633
                      CHANNELS 3 Zrotation Xrotation Yrotation
                      End Site
                      {
                        OFFSET 1.4888 -0.4091 -0.3416
                      }
                    }
                  }
                }
                JOINT LeftHandThumb1
                {
                  OFFSET 1.833 -1.3875 1.3896
                  CHANNELS 3 Zrotation Xrotation Yrotation
                  JOINT LeftHandThumb2
                  {
                    OFFSET 3.4129 -1.121 2.5732
                    CHANNELS 3 Zrotation Xrotation Yrotation
                    JOINT LeftHandThumb3
                    {
                      OFFSET 2.2474 -0.804199 1.6192
                      CHANNELS 3 Zrotation Xrotation Yrotation
                      End Site
                      {
                        OFFSET 1.6527 -0.5689 1.1317
                      }
                    }
                  }
                }
              }
            }
          }
        }
        JOINT RightShoulder
        {
          OFFSET -2.2086 21.1115 7.2329
          CHANNELS 3 Zrotation Xrotation Yrotation
          JOINT RightArm
          {
            OFFSET -13.1216 3.0287 -4.9007
            CHANNELS 3 Zrotation Xrotation Yrotation
            JOINT RightForeArm
            {
              OFFSET -27.4081 -0.0973053 -0.2375
              CHANNELS 3 Zrotation Xrotation Yrotation
              JOINT RightHand
              {
                OFFSET -22.8641 0.0664063 -0.1369
                CHANNELS 3 Zrotation Xrotation Yrotation
                JOINT RightHandIndex1
                {
                  OFFSET -8.8614 0.774994 2.4612
                  CHANNELS 3 Zrotation Xrotation Yrotation
                  JOINT RightHandIndex2
                  {
                    OFFSET -3.3146 -0.808304 0.5841
                    CHANNELS 3 Zrotation Xrotation Yrotation
                    JOINT RightHandIndex3
                    {
                      OFFSET -2.2628 -0.552002 0.3989
                      CHANNELS 3 Zrotation Xrotation Yrotation
                      End Site
                      {
                        OFFSET -1.6102 -0.4807 0.2612
                      }
                    }
                  }
                }
                JOINT RightHandMiddle1
                {
                  OFFSET -8.9937 0.894989 0.2143
                  CHANNELS 3 Zrotation Xrotation Yrotation
                  JOINT RightHandMiddle2
                  {
                    OFFSET -4.0984 0.0113983 -0.0242
                    CHANNELS 3 Zrotation Xrotation Yrotation
                    JOINT RightHandMiddle3
                    {
                      OFFSET -2.2716 0.00691223 -0.0138001
                      CHANNELS 3 Zrotation Xrotation Yrotation
                      End Site
                      {
                        OFFSET -2.0404 -0.1441 0.0027
                      }
                    }
                  }
                }
                JOINT RightHandRing1
                {
                  OFFSET -8.5234 0.597198 -2.0164
                  CHANNELS 3 Zrotation Xrotation Yrotation
                  JOINT RightHandRing2
                  {
                    OFFSET -3.7188 -0.188309 -0.2328
                    CHANNELS 3 Zrotation Xrotation Yrotation
                    JOINT RightHandRing3
                    {
                      OFFSET -2.1191 -0.106598 -0.1332
                      CHANNELS 3 Zrotation Xrotation Yrotation
                      End Site
                      {
                        OFFSET -1.8737 -0.2304 -0.0886
                      }
                    }
                  }
                }
                JOINT RightHandPinky1
                {
                  OFFSET -7.9094 -0.601105 -3.4825
                  CHANNELS 3 Zrotation Xrotation Yrotation
                  JOINT RightHandPinky2
                  {
                    OFFSET -2.2874 -0.477005 -0.6314
                    CHANNELS 3 Zrotation Xrotation Yrotation
                    JOINT RightHandPinky3
                    {
                      OFFSET -1.6774 -0.349396 -0.4633
                      CHANNELS 3 Zrotation Xrotation Yrotation
                      End Site
                      {
                        OFFSET -1.4888 -0.4091 -0.3416
                      }
                    }
                  }
                }
                JOINT RightHandThumb1
                {
                  OFFSET -1.833 -1.38751 1.3896
                  CHANNELS 3 Zrotation Xrotation Yrotation
                  JOINT RightHandThumb2
                  {
                    OFFSET -3.41299 -1.12099 2.5732
                    CHANNELS 3 Zrotation Xrotation Yrotation
                    JOINT RightHandThumb3
                    {
                      OFFSET -2.24741 -0.804108 1.6192
                      CHANNELS 3 Zrotation Xrotation Yrotation
                      End Site
                      {
                        OFFSET -1.6527 -0.5689 1.1317
                      }
                    }
                  }
                }
              }
            }
          }
        }
      }
    }
  }
  JOINT RightUpLeg
  {
    OFFSET -9.1966 3.8861 -0.7581
    CHANNELS 3 Zrotation Xrotation Yrotation
    JOINT RightLeg
    {
      OFFSET -0.7359 -41.0265 0
      CHANNELS 3 Zrotation Xrotation Yrotation
      JOINT RightFoot
      {
        OFFSET 0 -40.2855 0
        CHANNELS 3 Zrotation Xrotation Yrotation
        JOINT RightToeBase
        {
          OFFSET 0 -5.6122 11.7359
          CHANNELS 3 Zrotation Xrotation Yrotation
          End Site
          {
            OFFSET 0 0 7.8731
          }
        }
      }
    }
  }
  JOINT LeftUpLeg
  {
    OFFSET 9.1965 3.8864 -0.7581
    CHANNELS 3 Zrotation Xrotation Yrotation
    JOINT LeftLeg
    {
      OFFSET 0.7359 -41.0268 0
      CHANNELS 3 Zrotation Xrotation Yrotation
      JOINT LeftFoot
      {
        OFFSET 0 -40.2855 0
        CHANNELS 3 Zrotation Xrotation Yrotation
        JOINT LeftToeBase
        {
          OFFSET 0 -5.6122 11.7359
          CHANNELS 3 Zrotation Xrotation Yrotation
          End Site
          {
            OFFSET 0 0 7.8731
          }
        }
      }
    }
  }
}
MOTION
Frames:	5
Frame Time:	0.0333333
39.769 -5.98513 50.6252 0 74.798 -0 -0.269185 1.51431 -0.197383 -0.533428 3.02954 -0.387847 -0.533428 3.02951 -0.387848 -1.80801e-005 -24.0062 -1.08186e-005 -0.0600576 -22.3427 -0.0243363 3.30275 3.06412 -2.48631 -59.6327 -38.8737 -38.0441 48.0342 -35.1579 -68.2229 -0.676367 -5.82699 6.19071 6.94833e-008 4.67154e-008 -2.33308e-006 4.57039e-008 2.75059e-008 -1.33935e-009 9.14078e-008 5.50118e-008 -2.67861e-009 6.94833e-008 4.67154e-008 -2.33308e-006 -0.0146105 -8.8847e-005 -1.0212e-006 9.14079e-008 5.50121e-008 -2.6717e-009 6.94833e-008 4.67154e-008 -2.33308e-006 -0.0187489 -0.00117538 5.64786e-005 7.09937e-008 4.71933e-008 -2.33308e-006 6.94833e-008 4.67154e-008 -2.33308e-006 -0.012276 -0.00324983 0.000678656 9.14082e-008 5.50116e-008 -2.6753e-009 6.94833e-008 4.67154e-008 -2.33308e-006 4.57039e-008 2.75059e-008 -1.33935e-009 9.14078e-008 5.50118e-008 -2.67861e-009 5.40627 -1.05322 -5.23595 66.1958 -28.7107 41.0329 -49.7467 -37.6371 66.6929 6.6746 1.35654 -1.29205 -1.38897e-007 1.28142e-007 -2.799e-007 6.94484e-008 -6.40711e-008 1.3995e-007 -1.89072e-007 9.88461e-008 -5.33645e-009 -1.38897e-007 1.28142e-007 -2.799e-007 0.0150031 -9.13098e-005 2.93144e-006 -1.89072e-007 9.88454e-008 -5.34924e-009 -1.38897e-007 1.28142e-007 -2.799e-007 0.0189951 -0.00119122 -5.68416e-005 -1.41433e-007 1.28255e-007 -2.79912e-007 -1.38897e-007 1.28142e-007 -2.799e-007 0.0122673 -0.003248 -0.00067554 -1.89073e-007 9.88445e-008 -5.34164e-009 -1.38897e-007 1.28142e-007 -2.799e-007 6.94484e-008 -6.40711e-008 1.3995e-007 -1.89072e-007 9.88461e-008 -5.33645e-009 -34.5826 8.07168 -47.804 8.57378 23.0888 -20.6667 -7.73048 48.5753 17.2749 -9.6695e-006 7.25799e-006 4.66967e-006 27.8164 11.0117 47.6029 -7.13423 17.0643 20.1814 6.95762 48.2596 -15.4605 1.28567e-006 -2.615e-006 -4.13376e-006 
39.7688 -6.0056 50.6164 0 74.5978 -0 -0.268545 1.60082 -0.19602 -0.531918 3.20254 -0.384753 -0.531919 3.20254 -0.384754 7.98144e-006 -24.0064 4.97636e-006 -0.0600576 -22.3427 -0.0243368 2.84959 2.9043 -2.24747 -59.9565 -38.6436 -39.1646 47.9819 -35.048 -68.028 -1.04884 -5.15471 5.8244 9.14065e-008 5.50192e-008 -2.58764e-009 9.14065e-008 5.50192e-008 -2.58763e-009 4.57032e-008 2.75096e-008 -1.29382e-009 9.14065e-008 5.50192e-008 -2.58764e-009 -0.0146148 -8.84891e-005 9.94936e-006 4.57033e-008 2.75098e-008 -1.29035e-009 9.14065e-008 5.50192e-008 -2.58764e-009 -0.0187545 -0.00117565 6.81563e-005 4.57033e-008 2.75098e-008 -1.28978e-009 9.14065e-008 5.50192e-008 -2.58764e-009 -0.0122453 -0.00324208 0.000675352 4.57034e-008 2.75095e-008 -1.29218e-009 9.14065e-008 5.50192e-008 -2.58764e-009 9.14065e-008 5.50192e-008 -2.58763e-009 4.57032e-008 2.75096e-008 -1.29382e-009 5.59717 -1.01723 -5.12415 66.1816 -28.7327 41.4691 -49.7292 -37.6037 66.5395 6.69482 1.66419 -1.22332 -3.97569e-016 1.98785e-016 6.36111e-015 9.4533e-008 -4.94246e-008 2.76856e-009 -1.98785e-016 1.98785e-016 3.18055e-015 -3.97569e-016 1.98785e-016 6.36111e-015 0.0149998 -9.0984e-005 2.72601e-006 -3.5218e-008 -1.96927e-008 2.75356e-007 -3.97569e-016 1.98785e-016 6.36111e-015 0.0189907 -0.00119098 -5.672e-005 0 5.96354e-016 -0 -3.97569e-016 1.98785e-016 6.36111e-015 0.012313 -0.00325944 -0.000679313 -3.55685e-008 -2.01218e-008 2.75265e-007 -3.97569e-016 1.98785e-016 6.36111e-015 9.4533e-008 -4.94246e-008 2.76856e-009 -1.98785e-016 1.98785e-016 3.18055e-015 -34.656 8.23162 -47.7922 8.57926 23.1015 -20.6696 -7.84482 48.5112 17.42 -2.03818e-006 2.60183e-008 2.53402e-006 27.9017 11.168 47.6007 -7.13353 17.0455 20.1826 7.04334 48.1761 -15.593 1.76574e-007 3.45888e-006 2.91326e-007 
39.7686 -6.02602 50.6076 0 74.3977 -0 -0.2679 1.68733 -0.194652 -0.530406 3.37552 -0.381654 -0.530405 3.37552 -0.381654 3.09408e-006 -24.0063 2.36113e-006 -0.0600574 -22.3427 -0.0243366 2.39719 2.7427 -2.00998 -60.2734 -38.4088 -40.2796 47.9292 -34.9383 -67.8331 -1.41655 -4.48022 5.46296 -7.95139e-016 5.96354e-016 -0 -3.31043e-032 5.96354e-016 3.18055e-015 -1.19271e-015 3.97569e-016 6.36111e-015 -7.95139e-016 5.96354e-016 -0 -0.0146106 -8.88028e-005 1.75261e-006 -7.95139e-016 1.98785e-015 -0 -7.95139e-016 5.96354e-016 -0 -0.0187543 -0.00117577 6.65051e-005 2.20695e-032 -3.97569e-016 3.18055e-015 -7.95139e-016 5.96354e-016 -0 -0.0122411 -0.00324157 0.000671334 6.22238e-008 -2.2255e-007 -2.32642e-006 -7.95139e-016 5.96354e-016 -0 -3.31043e-032 5.96354e-016 3.18055e-015 -1.19271e-015 3.97569e-016 6.36111e-015 5.78798 -0.980779 -5.0125 66.1677 -28.7548 41.9055 -49.7115 -37.5705 66.3862 6.71467 1.97186 -1.15468 9.45305e-008 -4.94253e-008 2.8688e-009 -3.97569e-016 5.96354e-016 1.90833e-014 9.45305e-008 -4.94253e-008 2.86883e-009 9.45305e-008 -4.94253e-008 2.8688e-009 0.0149969 -9.0956e-005 1.88957e-007 9.45307e-008 -4.94249e-008 2.87522e-009 9.45305e-008 -4.94253e-008 2.8688e-009 0.0189928 -0.00119119 -6.20508e-005 9.45308e-008 -4.94248e-008 2.87603e-009 9.45305e-008 -4.94253e-008 2.8688e-009 0.0122562 -0.00324406 -0.000676509 9.4531e-008 -4.94245e-008 2.8714e-009 9.45305e-008 -4.94253e-008 2.8688e-009 -3.97569e-016 5.96354e-016 1.90833e-014 9.45305e-008 -4.94253e-008 2.86883e-009 -34.7295 8.39159 -47.7801 8.5847 23.1141 -20.6724 -7.95873 48.4469 17.5646 -4.83846e-006 5.78883e-007 -4.46402e-007 27.9872 11.3242 47.5982 -7.13282 17.0268 20.1837 7.12856 48.0926 -15.725 1.28284e-005 9.8254e-006 5.16366e-006 
39.7684 -6.04637 50.5989 0 74.1976 -0 -0.267254 1.7738 -0.193284 -0.528898 3.54848 -0.378556 -0.528898 3.5485 -0.378556 -3.13301e-005 -24.0064 -3.92926e-006 -0.0600574 -22.3427 -0.0243366 1.94557 2.57928 -1.77384 -60.5832 -38.1693 -41.3888 47.8761 -34.8287 -67.6384 -1.77957 -3.80367 5.10621 -1.10087e-007 1.82795e-007 -1.29818e-009 1.10087e-007 -1.82795e-007 1.29818e-009 -1.10087e-007 1.82795e-007 -1.29818e-009 -1.10087e-007 1.82795e-007 -1.29818e-009 -0.014611 -8.87117e-005 5.03578e-006 -1.10088e-007 1.82795e-007 -1.27478e-009 -1.10087e-007 1.82795e-007 -1.29818e-009 -0.0187598 -0.0011764 6.34118e-005 -1.10088e-007 1.82795e-007 -1.26713e-009 -1.10087e-007 1.82795e-007 -1.29818e-009 -0.0122834 -0.00325115 0.000688041 -7.62066e-008 4.38882e-008 -1.19623e-006 -1.10087e-007 1.82795e-007 -1.29818e-009 1.10087e-007 -1.82795e-007 1.29818e-009 -1.10087e-007 1.82795e-007 -1.29818e-009 5.97871 -0.943955 -4.90098 66.1539 -28.7769 42.3419 -49.6937 -37.5373 66.233 6.73417 2.27954 -1.08612 1.89057e-007 -9.88499e-008 5.93786e-009 -1.10348e-032 1.98785e-016 3.18055e-015 9.45284e-008 -4.94249e-008 2.96892e-009 1.89057e-007 -9.88499e-008 5.93786e-009 0.0149962 -9.11435e-005 3.49604e-006 9.45286e-008 -4.94246e-008 2.97533e-009 1.89057e-007 -9.88499e-008 5.93786e-009 0.0189941 -0.0011908 -5.21314e-005 9.45287e-008 -4.94244e-008 2.97612e-009 1.89057e-007 -9.88499e-008 5.93786e-009 0.0122979 -0.00325518 -0.000676919 9.45289e-008 -4.94241e-008 2.97155e-009 1.89057e-007 -9.88499e-008 5.93786e-009 -1.10348e-032 1.98785e-016 3.18055e-015 9.45284e-008 -4.94249e-008 2.96892e-009 -34.803 8.55149 -47.7678 8.59016 23.1268 -20.6753 -8.07226 48.3824 17.7089 -4.16991e-006 5.51229e-006 -8.792e-006 28.0727 11.4804 47.5955 -7.13208 17.0082 20.1847 7.21324 48.0088 -15.8566 1.80319e-006 -2.42136e-006 3.97083e-006 
39.7681 -6.06666 50.5903 0 73.9974 -0 -0.266607 1.86028 -0.191914 -0.527393 3.72141 -0.375457 -0.527393 3.72141 -0.375457 -1.07265e-005 -24.0063 -6.21891e-006 -0.0600575 -22.3427 -0.024337 1.49477 2.41405 -1.53906 -60.8859 -37.9252 -42.492 47.8226 -34.7193 -67.4439 -2.13794 -3.12518 4.75426 1.37085e-007 8.25907e-008 -3.47121e-009 -1.18965e-007 4.90495e-008 9.37862e-006 1.37085e-007 8.25907e-008 -3.47124e-009 1.37085e-007 8.25907e-008 -3.47121e-009 -0.0146074 -8.88059e-005 3.3049e-006 1.37085e-007 8.25911e-008 -3.4608e-009 1.37085e-007 8.25907e-008 -3.47121e-009 -0.0187661 -0.00117688 6.82169e-005 1.06414e-008 2.83104e-007 2.32158e-006 1.37085e-007 8.25907e-008 -3.47121e-009 -0.0122513 -0.00324344 0.000680822 1.37086e-007 8.25903e-008 -3.46628e-009 1.37085e-007 8.25907e-008 -3.47121e-009 -1.18965e-007 4.90495e-008 9.37862e-006 1.37085e-007 8.25907e-008 -3.47124e-009 6.16935 -0.906715 -4.78959 66.1403 -28.7992 42.7783 -49.6758 -37.5041 66.0798 6.75329 2.58722 -1.01767 5.29669e-031 -1.59028e-015 1.90833e-014 -9.30437e-008 5.84399e-008 2.73771e-007 -1.48299e-009 -9.01625e-009 -2.7684e-007 5.29669e-031 -1.59028e-015 1.90833e-014 0.0150003 -9.09269e-005 4.20635e-006 -3.48311e-009 -9.04036e-009 -2.76839e-007 5.29669e-031 -1.59028e-015 1.90833e-014 0.0189937 -0.00119069 -5.7267e-005 -4.01817e-009 -8.90338e-009 -2.7683e-007 5.29669e-031 -1.59028e-015 1.90833e-014 0.0122493 -0.00324293 -0.00067714 -3.97569e-016 9.93923e-016 3.18055e-015 5.29669e-031 -1.59028e-015 1.90833e-014 -9.30437e-008 5.84399e-008 2.73771e-007 -1.48299e-009 -9.01625e-009 -2.7684e-007 -34.8766 8.71131 -47.7553 8.5956 23.1395 -20.6781 -8.1853 48.3177 17.8527 -3.2506e-006 -1.58733e-006 -1.01908e-007 28.1583 11.6366 47.5926 -7.13138 16.9896 20.1858 7.29746 47.925 -15.9877 -3.57832e-006 -9.31652e-006 9.77839e-007 
